<svg class="svg-speaker" viewBox="0 0 46 86" xmlns="http://www.w3.org/2000/svg" xmlns:serif="http://www.serif.com/" fill-rule="evenodd" clip-rule="evenodd" stroke-linejoin="round" stroke-miterlimit="1.414">
  <circle cx="23.111" cy="15.611" r="6.45"/>
  <path d="M12.167 43.16l.567-8.975 1.856 8.975h7.566l-.099 1.289h3.074l-.101-1.289h7.467l1.855-8.975.568 8.975h5.965c.04-2.095.064-4.325.064-6.647l-.041-3.026c-.065-4.572-3.254-8.714-7.086-9.207l-3.312-.426c-3.831-.493-10.102-.493-13.934 0l-3.311.426c-3.832.493-7.021 4.635-7.086 9.207l-.043 3.026c0 2.323.024 4.553.064 6.647h5.967zm9.035-9.371h1.904v-.787h-1.904v-.845h2.773v-.896h-2.714a2.39 2.39 0 0 1 4.727.516v2.284c0 1.002-.926 1.88-1.801 2.237l.821 6.735h-2.825l.883-6.735c-.876-.356-1.864-1.235-1.864-2.237v-.272z" fill-rule="nonzero"/>
  <path d="M18.828 6.604a.863.863 0 0 0 1.158.375.86.86 0 0 0 .375-1.157l-1.79-3.505a.86.86 0 0 0-1.533.782l1.79 3.505z"/>
  <path serif:id="Path" d="M23.193 6.178l.042-.001a.86.86 0 0 0 .818-.901l-.188-3.93a.858.858 0 0 0-.899-.819.862.862 0 0 0-.819.901l.188 3.93c.022.46.403.82.858.82zM26.528 6.783a.863.863 0 0 0 1.117-.483l1.446-3.658a.86.86 0 0 0-1.599-.633l-1.447 3.659a.859.859 0 0 0 .483 1.115zM28.983 8.706a.861.861 0 0 0 1.217.017l2.821-2.742a.862.862 0 0 0-1.2-1.235l-2.82 2.743a.86.86 0 0 0-.018 1.217zM16.207 9.121a.857.857 0 0 0 1.217-.017.86.86 0 0 0-.018-1.217l-2.82-2.743a.86.86 0 0 0-1.2 1.235l2.821 2.742zM8.643 85.979h29.933l2.471-34.462H5.642l3.001 34.462zM.767 45.553v4.71h4.71l.005.057H41.18l.004-.057h4.325v-4.71H.767z"/>
</svg>
